<svg xmlns="http://www.w3.org/2000/svg" width="83.177" height="83.255" viewBox="0 0 83.177 83.255">
  <path id="wi-day-sunny" d="M4.37,45.589a3.308,3.308,0,0,1,.979-2.428,3.384,3.384,0,0,1,2.35-.94h7.989a2.968,2.968,0,0,1,2.271.979A3.679,3.679,0,0,1,18,47.977a2.911,2.911,0,0,1-2.271.979H7.738a3.2,3.2,0,0,1-2.35-.979A3.257,3.257,0,0,1,4.37,45.589Zm11.2,27.138a3.627,3.627,0,0,1,.9-2.389l5.757-5.6a3.011,3.011,0,0,1,2.31-.9,3.317,3.317,0,0,1,2.35.9,2.928,2.928,0,0,1,.94,2.232,3.694,3.694,0,0,1-.94,2.506l-5.561,5.561a3.556,3.556,0,0,1-4.817,0A3.162,3.162,0,0,1,15.57,72.727Zm0-54.2a3.627,3.627,0,0,1,.9-2.389,3.76,3.76,0,0,1,2.506-.979,3.292,3.292,0,0,1,2.31.94l5.6,5.757a3.04,3.04,0,0,1,.94,2.31,3.212,3.212,0,0,1-3.289,3.289,3.04,3.04,0,0,1-2.31-.94l-5.717-5.6A3.278,3.278,0,0,1,15.57,18.529Zm9.986,27.06A19.766,19.766,0,0,1,28.3,35.407a20.451,20.451,0,0,1,7.48-7.48,20.09,20.09,0,0,1,18.092-1.1,20.459,20.459,0,0,1,6.5,4.386,20.549,20.549,0,0,1,5.952,14.411,19.8,19.8,0,0,1-2.741,10.221,20.537,20.537,0,0,1-7.441,7.441,20.425,20.425,0,0,1-20.442,0,20.537,20.537,0,0,1-7.441-7.441A20.806,20.806,0,0,1,25.556,45.589Zm6.657,0A13.838,13.838,0,0,0,46,59.451,13.905,13.905,0,0,0,59.861,45.589a13.2,13.2,0,0,0-4.073-9.673A13.417,13.417,0,0,0,46,31.922a13.241,13.241,0,0,0-9.712,3.994A13.052,13.052,0,0,0,32.213,45.589ZM42.63,76.056a3.076,3.076,0,0,1,.979-2.35,3.316,3.316,0,0,1,2.35-.94,3.278,3.278,0,0,1,2.389.94,3.188,3.188,0,0,1,.94,2.35v7.793a3.308,3.308,0,0,1-.979,2.428,3.2,3.2,0,0,1-2.35.979,3.135,3.135,0,0,1-2.35-.979,3.308,3.308,0,0,1-.979-2.428V76.056Zm0-60.7V7.368a3.2,3.2,0,0,1,.979-2.35A3.257,3.257,0,0,1,46,4a3.135,3.135,0,0,1,2.35.979,3.2,3.2,0,0,1,.979,2.35v8.028a2.968,2.968,0,0,1-.979,2.271,3.28,3.28,0,0,1-2.35.9,3.385,3.385,0,0,1-2.35-.9A3.082,3.082,0,0,1,42.63,15.357ZM64.247,66.97a3.075,3.075,0,0,1,3.094-3.094,3.317,3.317,0,0,1,2.35.9l5.717,5.6a3.408,3.408,0,0,1,.94,2.389,3.161,3.161,0,0,1-.94,2.31,3.487,3.487,0,0,1-4.7,0l-5.561-5.561A3.813,3.813,0,0,1,64.247,66.97Zm0-42.763a3.036,3.036,0,0,1,.9-2.31l5.561-5.757a3.292,3.292,0,0,1,2.31-.94,3.076,3.076,0,0,1,2.35.979,3.2,3.2,0,0,1,.979,2.35,3.306,3.306,0,0,1-.94,2.428l-5.717,5.6a3.454,3.454,0,0,1-2.35.94,2.844,2.844,0,0,1-2.193-.94A3.317,3.317,0,0,1,64.247,24.207ZM73.1,45.589a3.5,3.5,0,0,1,.94-2.428,3.049,3.049,0,0,1,2.232-.94h7.91a3.323,3.323,0,0,1,2.35,5.717,3.2,3.2,0,0,1-2.35.979h-7.91A2.911,2.911,0,0,1,74,47.938,3.385,3.385,0,0,1,73.1,45.589Z" transform="translate(-4.37 -4)" fill="#ffce00"/>
</svg>
